<?xml version="1.0" encoding="UTF-8" standalone="no"?>
<svg
   xmlns:dc="http://purl.org/dc/elements/1.1/"
   xmlns:cc="http://creativecommons.org/ns#"
   xmlns:rdf="http://www.w3.org/1999/02/22-rdf-syntax-ns#"
   xmlns:svg="http://www.w3.org/2000/svg"
   xmlns="http://www.w3.org/2000/svg"
   viewBox="0 0 244.0575 62.499626"
   height="62.499626"
   width="244.0575"
   xml:space="preserve"
   version="1.1"
   id="svg2"><metadata
     id="metadata8"><rdf:RDF><cc:Work
         rdf:about=""><dc:format>image/svg+xml</dc:format><dc:type
           rdf:resource="http://purl.org/dc/dcmitype/StillImage" /></cc:Work></rdf:RDF></metadata><defs
     id="defs6"><clipPath
       id="clipPath20"
       clipPathUnits="userSpaceOnUse"><path
         id="path22"
         d="m 0,50 195.246,0 0,-50 L 0,0 0,50 Z" /></clipPath><clipPath
       id="clipPath70"
       clipPathUnits="userSpaceOnUse"><path
         id="path72"
         d="m 0,50 195.246,0 0,-50 L 0,0 0,50 Z" /></clipPath></defs><g
     transform="matrix(1.25,0,0,-1.25,0,62.499625)"
     id="g10"><g
       transform="translate(86.6849,22.5571)"
       id="g12"><path
         id="path14"
         style="fill:#00ce2c;fill-opacity:1;fill-rule:evenodd;stroke:none"
         d="m 0,0 -0.059,0 -3.381,10.585 -1.999,0 L -8.821,0 -8.88,0 l -3.617,10.585 -3.263,0 6.086,-16.289 1.676,0 3.529,10.967 0.058,0 3.529,-10.967 1.705,0 6.028,16.289 -3.264,0 L 0,0 Z" /></g><g
       id="g16"><g
         clip-path="url(#clipPath20)"
         id="g18"><g
           transform="translate(107.6634,22.8511)"
           id="g24"><path
             id="path26"
             style="fill:#00ce2c;fill-opacity:1;fill-rule:evenodd;stroke:none"
             d="m 0,0 c -0.284,-0.706 -0.686,-1.329 -1.205,-1.867 -0.52,-0.539 -1.128,-0.966 -1.823,-1.279 -0.696,-0.314 -1.455,-0.471 -2.279,-0.471 -0.863,0 -1.642,0.162 -2.338,0.486 -0.696,0.323 -1.298,0.759 -1.808,1.308 -0.51,0.549 -0.901,1.166 -1.176,1.852 -0.274,0.686 -0.412,1.402 -0.412,2.147 0,0.725 0.138,1.436 0.412,2.132 0.275,0.695 0.662,1.313 1.161,1.852 0.5,0.539 1.103,0.97 1.809,1.294 0.706,0.323 1.489,0.485 2.352,0.485 0.863,0 1.647,-0.162 2.352,-0.485 C -2.249,7.13 -1.646,6.699 -1.146,6.16 -0.646,5.621 -0.26,5.008 0.015,4.322 0.289,3.636 0.427,2.93 0.427,2.206 0.427,1.441 0.284,0.706 0,0 m 0.941,8.218 c -0.794,0.774 -1.725,1.387 -2.794,1.838 -1.068,0.45 -2.219,0.676 -3.454,0.676 -1.274,0 -2.445,-0.235 -3.513,-0.706 -1.069,-0.47 -1.995,-1.093 -2.779,-1.867 -0.784,-0.774 -1.397,-1.671 -1.838,-2.69 -0.441,-1.019 -0.662,-2.088 -0.662,-3.205 0,-1.039 0.202,-2.073 0.603,-3.102 0.402,-1.029 0.98,-1.955 1.735,-2.779 0.754,-0.823 1.676,-1.495 2.764,-2.014 1.088,-0.519 2.318,-0.779 3.69,-0.779 1.371,0 2.607,0.265 3.705,0.794 1.097,0.529 2.019,1.205 2.764,2.029 0.744,0.823 1.318,1.744 1.72,2.764 0.401,1.019 0.602,2.028 0.602,3.029 0,1.155 -0.225,2.253 -0.675,3.293 C 2.357,6.537 1.735,7.443 0.941,8.218" /></g><g
           transform="translate(118.264,33.3037)"
           id="g28"><path
             id="path30"
             style="fill:#00ce2c;fill-opacity:1;fill-rule:evenodd;stroke:none"
             d="m 0,0 c -0.393,-0.127 -0.79,-0.319 -1.191,-0.573 -0.402,-0.255 -0.76,-0.608 -1.074,-1.058 l -0.058,0 0,1.469 -2.852,0 0,-16.289 3.058,0 0,8.909 c 0,1.177 0.177,2.083 0.529,2.72 0.353,0.637 0.774,1.093 1.264,1.367 0.373,0.196 0.774,0.343 1.206,0.441 0.43,0.098 0.764,0.147 1,0.147 l 0,3.147 C 1.686,0.28 1.421,0.265 1.088,0.235 0.754,0.206 0.392,0.127 0,0" /></g><path
           id="path32"
           style="fill:#00ce2c;fill-opacity:1;fill-rule:evenodd;stroke:none"
           d="m 121.91,16.853 3.058,0 0,21.758 -3.058,0 0,-21.758 z" /><g
           transform="translate(141.3158,22.748)"
           id="g34"><path
             id="path36"
             style="fill:#00ce2c;fill-opacity:1;fill-rule:evenodd;stroke:none"
             d="m 0,0 c -0.294,-0.696 -0.696,-1.304 -1.206,-1.823 -0.51,-0.52 -1.107,-0.931 -1.793,-1.235 -0.688,-0.304 -1.432,-0.456 -2.235,-0.456 -0.804,0 -1.549,0.162 -2.235,0.486 -0.686,0.323 -1.274,0.75 -1.764,1.278 -0.491,0.53 -0.872,1.137 -1.147,1.824 -0.274,0.686 -0.412,1.401 -0.412,2.146 0,0.647 0.113,1.313 0.339,2 0.224,0.685 0.573,1.312 1.044,1.882 0.47,0.567 1.054,1.033 1.749,1.396 0.696,0.362 1.514,0.544 2.455,0.544 0.784,0 1.518,-0.143 2.206,-0.427 0.686,-0.283 1.283,-0.681 1.793,-1.19 C -0.696,5.915 -0.294,5.302 0,4.587 0.294,3.872 0.44,3.083 0.44,2.22 0.44,1.436 0.294,0.696 0,0 m 0.205,8.395 -0.059,0 c -0.587,0.745 -1.372,1.337 -2.351,1.779 -0.981,0.44 -2.039,0.661 -3.176,0.661 -1.451,0 -2.706,-0.265 -3.764,-0.793 -1.058,-0.53 -1.936,-1.211 -2.631,-2.044 -0.697,-0.833 -1.216,-1.76 -1.559,-2.779 C -13.678,4.2 -13.85,3.19 -13.85,2.19 c 0,-1.078 0.187,-2.127 0.559,-3.146 0.373,-1.019 0.921,-1.925 1.647,-2.719 0.725,-0.794 1.612,-1.431 2.661,-1.911 1.048,-0.48 2.25,-0.721 3.602,-0.721 1.195,0 2.293,0.23 3.293,0.691 1,0.46 1.823,1.142 2.47,2.043 l 0.058,0 0,-2.322 2.824,0 0,21.758 -3.059,0 0,-7.468 z" /></g><g
           transform="translate(156.721,20.543)"
           id="g38"><path
             id="path40"
             style="fill:#0077cd;fill-opacity:1;fill-rule:nonzero;stroke:none"
             d="m 0,0 c -0.334,-0.382 -0.745,-0.696 -1.235,-0.941 -0.491,-0.245 -1.039,-0.368 -1.647,-0.368 -0.157,0 -0.446,0.03 -0.867,0.088 C -4.171,-1.162 -4.611,-1 -5.072,-0.735 -5.533,-0.471 -5.95,-0.069 -6.321,0.47 -6.694,1.009 -6.9,1.759 -6.939,2.72 l -3.058,0 c 0,-1 0.195,-1.917 0.588,-2.749 0.391,-0.834 0.911,-1.554 1.558,-2.162 0.647,-0.608 1.392,-1.078 2.235,-1.411 0.843,-0.333 1.724,-0.5 2.646,-0.5 0.941,0 1.838,0.157 2.691,0.471 0.852,0.313 1.602,0.764 2.249,1.352 0.646,0.588 1.162,1.309 1.544,2.161 0.382,0.853 0.573,1.828 0.573,2.926 0,0.333 -0.034,0.73 -0.103,1.191 -0.069,0.46 -0.211,0.936 -0.426,1.426 -0.216,0.49 -0.515,0.98 -0.897,1.47 -0.383,0.49 -0.888,0.931 -1.515,1.323 0.255,0.236 0.5,0.475 0.736,0.72 0.235,0.245 0.445,0.53 0.632,0.853 0.186,0.324 0.338,0.701 0.456,1.132 0.117,0.431 0.176,0.941 0.176,1.529 0,0.863 -0.147,1.662 -0.441,2.397 -0.294,0.734 -0.701,1.371 -1.221,1.911 -0.519,0.539 -1.136,0.96 -1.852,1.264 -0.715,0.304 -1.504,0.456 -2.367,0.456 -0.392,0 -0.911,-0.074 -1.558,-0.221 -0.647,-0.147 -1.294,-0.431 -1.94,-0.853 -0.648,-0.421 -1.216,-1.014 -1.706,-1.779 -0.491,-0.764 -0.775,-1.763 -0.853,-2.999 l 3.058,0 c 0.079,0.726 0.245,1.294 0.501,1.706 0.254,0.412 0.538,0.715 0.852,0.912 0.313,0.195 0.612,0.318 0.897,0.367 0.284,0.049 0.505,0.074 0.661,0.074 0.431,0 0.828,-0.084 1.191,-0.25 0.362,-0.167 0.671,-0.388 0.926,-0.662 0.255,-0.275 0.451,-0.593 0.588,-0.955 0.138,-0.363 0.206,-0.741 0.206,-1.132 0,-0.04 -0.015,-0.217 -0.044,-0.53 C 0.015,11.844 -0.104,11.501 -0.309,11.129 -0.515,10.756 -0.833,10.418 -1.265,10.115 -1.696,9.811 -2.304,9.659 -3.088,9.659 l -1.058,0 0,-3.058 1.118,0 c 0.529,0 1.038,-0.094 1.528,-0.28 C -1.01,6.135 -0.579,5.875 -0.206,5.542 0.166,5.209 0.466,4.797 0.69,4.307 0.916,3.817 1.029,3.278 1.029,2.69 1.029,2.22 0.94,1.75 0.765,1.279 0.588,0.809 0.333,0.382 0,0" /></g><g
           transform="translate(165.9671,25.9531)"
           id="g42"><path
             id="path44"
             style="fill:#0077cd;fill-opacity:1;fill-rule:nonzero;stroke:none"
             d="M 0,0 C 0.245,0.559 0.574,1.053 0.986,1.485 1.397,1.916 1.877,2.254 2.427,2.499 2.975,2.744 3.563,2.867 4.19,2.867 4.798,2.867 5.372,2.744 5.911,2.499 6.449,2.254 6.915,1.911 7.308,1.47 7.699,1.029 8.008,0.51 8.233,-0.088 8.459,-0.687 8.572,-1.328 8.572,-2.014 8.572,-2.622 8.464,-3.205 8.248,-3.764 8.032,-4.322 7.724,-4.822 7.322,-5.263 6.92,-5.705 6.449,-6.057 5.911,-6.322 5.372,-6.586 4.779,-6.719 4.132,-6.719 c -0.647,0 -1.249,0.128 -1.809,0.383 -0.558,0.254 -1.034,0.607 -1.426,1.058 -0.392,0.451 -0.701,0.97 -0.926,1.559 -0.225,0.588 -0.338,1.224 -0.338,1.911 0,0.646 0.123,1.249 0.367,1.808 m -1.616,-6.851 c 0.617,-0.755 1.401,-1.387 2.351,-1.897 0.952,-0.509 2.083,-0.764 3.397,-0.764 1.078,0 2.077,0.206 2.999,0.617 0.922,0.412 1.716,0.971 2.382,1.677 0.666,0.705 1.185,1.533 1.558,2.484 0.372,0.95 0.559,1.965 0.559,3.044 0,0.999 -0.172,1.944 -0.515,2.837 -0.343,0.891 -0.823,1.67 -1.44,2.337 C 9.057,4.15 8.316,4.68 7.454,5.072 6.592,5.464 5.65,5.66 4.632,5.66 4.377,5.66 4.161,5.646 3.985,5.616 3.809,5.586 3.593,5.552 3.338,5.513 l 4.616,7.145 -3.616,0 -6.116,-9.556 C -1.876,2.926 -2.019,2.68 -2.205,2.367 -2.392,2.053 -2.572,1.676 -2.748,1.235 -2.925,0.793 -3.082,0.289 -3.219,-0.279 c -0.137,-0.569 -0.206,-1.177 -0.206,-1.824 0,-0.705 0.148,-1.484 0.442,-2.337 0.294,-0.852 0.749,-1.657 1.367,-2.411" /></g><g
           transform="translate(181.7122,31.876)"
           id="g46"><path
             id="path48"
             style="fill:#0077cd;fill-opacity:1;fill-rule:nonzero;stroke:none"
             d="M 0,0 C 0,0.884 0.137,1.605 0.415,2.161 0.688,2.722 1.03,3.169 1.44,3.502 1.852,3.834 2.289,4.062 2.749,4.19 3.21,4.318 3.639,4.382 4.03,4.382 4.322,4.382 4.692,4.332 5.134,4.236 5.572,4.136 6.005,3.93 6.425,3.62 6.849,3.306 7.209,2.863 7.515,2.293 7.815,1.728 7.971,0.962 7.971,0 l 0,-8.025 c 0,-0.57 -0.041,-1.108 -0.119,-1.619 -0.078,-0.506 -0.365,-1.049 -0.853,-1.614 -0.374,-0.415 -0.803,-0.748 -1.295,-0.999 -0.488,-0.255 -1.04,-0.383 -1.646,-0.383 -0.137,0 -0.424,0.027 -0.867,0.087 -0.442,0.059 -0.898,0.237 -1.367,0.529 -0.47,0.296 -0.894,0.752 -1.263,1.381 C 0.187,-10.014 0,-9.143 0,-8.025 L 0,0 Z m 9.872,5.006 c 0.1,0.064 0.21,0.119 0.323,0.164 0.046,0.019 0.092,0.033 0.137,0.041 0.032,0.01 0.068,0.019 0.101,0.023 0.049,0.014 0.104,0.023 0.159,0.028 0.064,0.009 0.133,0.013 0.201,0.013 0.943,0 1.705,-0.761 1.705,-1.705 0,-0.059 -0.004,-0.118 -0.009,-0.173 C 12.48,3.283 12.457,3.173 12.421,3.064 12.339,2.799 12.197,2.563 12.006,2.371 11.97,2.334 11.929,2.298 11.888,2.262 11.764,2.157 11.623,2.07 11.473,2.006 11.427,1.983 11.377,1.965 11.326,1.951 11.313,1.942 11.299,1.937 11.285,1.937 11.185,1.906 11.075,1.883 10.966,1.874 10.916,1.869 10.866,1.865 10.815,1.865 l -0.022,0 c -0.958,0 -1.719,0.761 -1.719,1.705 0,0.607 0.315,1.14 0.798,1.436 M -2.863,-10.041 c 0.086,-0.438 0.232,-0.894 0.437,-1.363 0.205,-0.474 0.497,-0.935 0.871,-1.387 0.233,-0.291 0.52,-0.592 0.867,-0.893 0.341,-0.306 0.738,-0.588 1.189,-0.853 0.452,-0.264 0.967,-0.483 1.542,-0.647 0.579,-0.169 1.213,-0.251 1.896,-0.251 0.666,0 1.287,0.078 1.856,0.237 0.565,0.155 1.076,0.356 1.528,0.602 0.451,0.246 0.853,0.515 1.203,0.807 0.357,0.296 0.658,0.579 0.912,0.852 0.708,0.826 1.15,1.638 1.323,2.44 0.177,0.807 0.264,1.628 0.264,2.472 l 0,8.025 c 0,0.287 -0.013,0.561 -0.036,0.825 1.422,0.1 2.544,1.286 2.544,2.745 0,1.523 -1.226,2.754 -2.74,2.754 -0.821,0 -1.555,-0.36 -2.062,-0.93 C 8.075,5.978 7.337,6.42 6.516,6.721 5.682,7.026 4.86,7.177 4.058,7.177 3.374,7.177 2.612,7.049 1.778,6.794 0.948,6.539 0.173,6.128 -0.543,5.558 -1.259,4.993 -1.855,4.231 -2.335,3.278 -2.818,2.33 -3.056,1.167 -3.056,-0.206 l 0,-7.582 c 0,-0.296 0.01,-0.634 0.029,-1.017 0.017,-0.383 0.072,-0.794 0.164,-1.236" /></g><g
           transform="translate(40.3304,19.1577)"
           id="g50"><path
             id="path52"
             style="fill:#00ce2c;fill-opacity:1;fill-rule:evenodd;stroke:none"
             d="M 0,0 -0.005,-0.005 -0.007,-0.006 C -5.854,-3.732 -11.55,-6.979 -16.726,-9.6 c 3.612,-2.439 8.028,-3.776 12.735,-3.549 11.504,0.553 20.387,10.238 19.839,21.636 -0.041,0.841 -0.131,1.67 -0.272,2.48 C 11.062,7.426 5.776,3.684 0,0" /></g><g
           transform="translate(38.2147,22.3535)"
           id="g54"><path
             id="path56"
             style="fill:#00ce2c;fill-opacity:1;fill-rule:evenodd;stroke:none"
             d="M 0,0 C 6.481,4.133 12.189,8.329 16.49,12.003 13.273,19.937 5.251,25.361 -3.861,24.923 -15.367,24.37 -24.248,14.682 -23.7,3.287 c 0.248,-5.158 2.385,-9.781 5.715,-13.244 5.178,2.357 11.439,5.787 17.975,9.951 C -0.008,-0.003 -0.003,0.002 0,0" /></g><g
           transform="translate(39.9241,19.7832)"
           id="g58"><path
             id="path60"
             style="fill:#0077cd;fill-opacity:1;fill-rule:nonzero;stroke:none"
             d="m 0,0 c 19.484,12.419 33.322,25.503 30.906,29.224 -1.644,2.534 -10.41,0.066 -21.989,-5.69 0.594,-0.474 1.163,-0.976 1.704,-1.508 6.895,3.108 11.823,4.287 12.832,2.73 1.782,-2.743 -9.308,-12.958 -24.769,-22.815 -15.459,-9.858 -29.438,-15.624 -31.22,-12.878 -1.003,1.547 2.081,5.466 7.73,10.355 -0.263,0.701 -0.487,1.42 -0.677,2.154 -9.979,-7.995 -15.803,-14.81 -14.168,-17.331 C -37.235,-19.477 -19.484,-12.422 0,0" /></g></g></g><text
       id="text62"
       style="font-variant:normal;font-weight:bold;font-stretch:normal;font-size:3.30209994px;font-family:'SFU Helvetica';-inkscape-font-specification:SFUHelveticaBold;writing-mode:lr-tb;fill:#00cc33;fill-opacity:1;fill-rule:nonzero;stroke:none"
       transform="matrix(1,0,0,-1,191.3364,34.2319)"><tspan
         id="tspan64"
         y="0"
         x="0">R</tspan></text>
<g
       id="g66"><g
         clip-path="url(#clipPath70)"
         id="g68"><text
           id="text74"
           style="font-variant:normal;font-weight:normal;font-stretch:normal;font-size:12.70180035px;font-family:'SFU Helvetica';-inkscape-font-specification:SFUHelvetica;writing-mode:lr-tb;fill:#00ce2c;fill-opacity:1;fill-rule:nonzero;stroke:none"
           transform="matrix(1,0,0,-1,111.7017,2.8579)"><tspan
             id="tspan76"
             y="0"
             x="0 9.1707001 11.990499 19.0527 26.114901 33.177101 36.708202 43.059101 50.121304 54.351002 60.7019 63.521702 69.872604 76.934799">Cloud services</tspan></text>
</g></g></g></svg>